PathFileType	4	(X/Y/Z)	/Users/visionmauri/Downloads/Videos/OAW11-top_Sports2D/OAW11-top_Sports2D_m_person00.trc
DataRate	CameraRate	NumFrames	NumMarkers	Units	OrigDataRate	OrigDataStartFrame	OrigNumFrames
30.0	30.0	10	22	m	30.0	1083	2166
Frame#	Time	Hip			RHip			RKnee			RAnkle			RBigToe			RSmallToe			RHeel			LHip			LKnee			LAnkle			LBigToe			LSmallToe			LHeel			Neck			Head			Nose			RShoulder			RElbow			RWrist			LShoulder			LElbow			LWrist			
		X1	Y1	Z1	X2	Y2	Z2	X3	Y3	Z3	X4	Y4	Z4	X5	Y5	Z5	X6	Y6	Z6	X7	Y7	Z7	X8	Y8	Z8	X9	Y9	Z9	X10	Y10	Z10	X11	Y11	Z11	X12	Y12	Z12	X13	Y13	Z13	X14	Y14	Z14	X15	Y15	Z15	X16	Y16	Z16	X17	Y17	Z17	X18	Y18	Z18	X19	Y19	Z19	X20	Y20	Z20	X21	Y21	Z21	X22	Y22	Z22
1083	36.11667436489608	1.1483159970511982	0.690532391040852	0.0301	1.1270164861813128	0.6752338610146013	0.0301	1.1878301879769895	0.5643527997409735	0.129	1.2474393393370133	0.48141830998244983	0.023	1.2438684910315096	0.4215298177507948	0.2179	1.2374227239925395	0.4281332247603919	0.1804	1.269687625084122	0.47070370639980375	-0.0119	1.1729501542851006	0.7031393128592118	0.0301	1.247936275954044	0.6009089909946544	0.129	1.3326169143846325	0.5239618185160017	0.023	1.32540739337861	0.46208942565921524	0.2179	1.3385233384512905	0.4698370257604195	0.1804	1.3567175672210692	0.5160997673853257	-0.0119	1.0570837482163546	0.8527192419370463	0.0008	1.0203697000637562	0.8943796625831162	0.0655	1.0348827222603323	0.8522312767250032	0.1076	1.037859965767413	0.8188883275236926	-0.01275	1.0770655467487276	0.7282204587570311	0.0702	1.0760360156440525	0.6503932293000285	0.1076	1.103223262599463	0.8632363389514077	-0.01275	1.1864775739623785	0.790073649337651	0.0702	1.2298152900113986	0.7102427210033586	0.1076
1084	36.15002309468822	1.1451355216473529	0.6893741943963999	0.0301	1.1232504752333028	0.6735334240878643	0.0301	1.1859434946914367	0.5644499999476409	0.129	1.2467591140764682	0.48161084429357437	0.023	1.2435857337426859	0.4213266180368163	0.2179	1.2370355586331847	0.427766595291756	0.1804	1.268931802452527	0.4703931760909292	-0.0119	1.1700952247443475	0.7024769746795874	0.0301	1.245142144910713	0.6013029701324997	0.129	1.3323925622153001	0.5244529775218326	0.023	1.3260829585106855	0.4621853600939578	0.2179	1.3388802978884167	0.470431319649274	0.1804	1.3566210697282488	0.5166607307047578	-0.0119	1.0537199349941364	0.8514343899940503	0.0008	1.014983223468245	0.8965426654266033	0.0655	1.0321154134929362	0.8528337984030689	0.1076	1.0326217011292613	0.8161676753697644	-0.01275	1.071019616225948	0.7260776035471609	0.0702	1.072926469291005	0.6481999759601068	0.1076	1.1004812744566557	0.8618357366031297	-0.01275	1.1843231013480493	0.7887868753116909	0.0702	1.2271412521864309	0.7098551939926275	0.1076
1085	36.18337182448037	1.1425272410982223	0.6879967353815724	0.0301	1.1199146757520713	0.6723092396345369	0.0301	1.184435407933478	0.5644270670507053	0.129	1.2464545314616953	0.4815761885719726	0.023	1.2431344298331566	0.42119623425476166	0.2179	1.2364666573704834	0.42737622692444993	0.1804	1.2681178953712848	0.47045218191794497	-0.0119	1.1676555120486325	0.7013525446621545	0.0301	1.2431124659108397	0.6007621979414376	0.129	1.331407976481774	0.5240091771922735	0.023	1.3270827765978357	0.46255553038971464	0.2179	1.3395690185614477	0.4712980652475189	0.1804	1.3555440191702135	0.5166744695848045	-0.0119	1.0503412761644892	0.8496744406200809	0.0008	1.0113817776205751	0.8982626566525596	0.0655	1.0304268944767991	0.8530100558238503	0.1076	1.0275038574496653	0.8135476542196394	-0.01275	1.0657461405382749	0.7236598200329222	0.0702	1.069879971610927	0.6455116165809078	0.1076	1.0978409999426813	0.8604147925135207	-0.01275	1.1823883173753247	0.7876938823413185	0.0702	1.2253085502935868	0.7089432694839066	0.1076
1086	36.21672055427252	1.1406794733611665	0.6861316302541673	0.0301	1.1174426082207414	0.6709867293411675	0.0301	1.1836274067878376	0.5634397916484463	0.129	1.246278816131623	0.48075443314470456	0.023	1.2426148477773886	0.420918017032271	0.2179	1.2359687120874217	0.4270788432986699	0.1804	1.2675106367074305	0.47075178451808897	-0.0119	1.165972235353337	0.6999071870776368	0.0301	1.2413399534633545	0.5993748902170718	0.129	1.32918516731785	0.5227900018641572	0.023	1.32843054463898	0.46310660357578687	0.2179	1.3411567434868799	0.47253923313464313	0.1804	1.3523482850739645	0.5159067999875543	-0.0119	1.0468575707110446	0.8475135052617632	0.0008	1.0104493262957048	0.8967032878795488	0.0655	1.0296079486348915	0.8510604330682752	0.1076	1.0230486855511547	0.8110894951306302	-0.01275	1.0616386750703009	0.7214602342072293	0.0702	1.067195220324272	0.6435437476975023	0.1076	1.0956488317650073	0.8591115328768373	-0.01275	1.180416389580744	0.7871196743329989	0.0702	1.2239019719655027	0.7077320137232778	0.1076
1087	36.250069284064665	1.1393004091100114	0.684000813688186	0.0301	1.115448010276937	0.6690897280924664	0.0301	1.1831278766856823	0.5619672685866679	0.129	1.246207132398594	0.4793009228620486	0.023	1.2425278177793582	0.42080943889857675	0.2179	1.2357699572807979	0.4270030379787889	0.1804	1.2670872674521263	0.470907302034532	-0.0119	1.1648824324904399	0.6983935604924534	0.0301	1.2391700751932266	0.597777376281928	0.129	1.3253755360904715	0.5218367569946565	0.023	1.3295876530038868	0.46397610036336145	0.2179	1.3431728429217589	0.47434551414554493	0.1804	1.346495663756506	0.5149671479781354	-0.0119	1.0433086520248263	0.84596783054477	0.0008	1.0105888594471344	0.893372946396864	0.0655	1.0286140142222986	0.8490824917877037	0.1076	1.0195653539963854	0.8088537880038491	-0.01275	1.0579437135945702	0.7202117377293697	0.0702	1.0649346128413644	0.6439523864418587	0.1076	1.094068370069351	0.8581035207133791	-0.01275	1.1781365419481364	0.7868223801638512	0.0702	1.221660152236801	0.707223662917022	0.1076
1088	36.28341801385681	1.137840851267634	0.6825489311287228	0.0301	1.1130512857608132	0.6671535049658023	0.0301	1.1821967677072276	0.560942749645944	0.129	1.246153193237375	0.4780927725331901	0.023	1.2429541100382917	0.42110152570159637	0.2179	1.2358134086250219	0.4271594909181558	0.1804	1.2667037052147267	0.4707560124547307	-0.0119	1.163911069268737	0.6972463520829865	0.0301	1.236722027013894	0.5965862286996364	0.129	1.3202317401698171	0.5218494572584337	0.023	1.3295906840534784	0.46517293426249506	0.2179	1.3442966628890873	0.47655080583618487	0.1804	1.3386705766570628	0.5147719854878617	-0.0119	1.0402359071366354	0.8455053304941307	0.0008	1.0096206612086132	0.8925659196504783	0.0655	1.0260722611635058	0.8507631405560503	0.1076	1.0166553490695733	0.8069247554316068	-0.01275	1.0537319977450543	0.7199646202558893	0.0702	1.0631874406338837	0.6464560763134308	0.1076	1.0933486297948123	0.8573099866641575	-0.01275	1.1759630230718443	0.7863091610520392	0.0702	1.2190545626554397	0.7079178794305956	0.1076
1089	36.31676674364896	1.1360691512188352	0.6826018920471519	0.0301	1.1104732648102316	0.6662474254576736	0.0301	1.1809490343370526	0.5606726828763606	0.129	1.245871290348884	0.47760626836667597	0.023	1.2434625374889583	0.4216045925138872	0.2179	1.236046193141578	0.42743854388851377	0.1804	1.2660423103710794	0.4703499625452269	-0.0119	1.1629482091499106	0.6968039278553425	0.0301	1.2347442479172506	0.596140247388365	0.129	1.3147616315158381	0.5218183553555099	0.023	1.328499046756666	0.4661672891975615	0.2179	1.344027627815658	0.4783186973092221	0.1804	1.3305734035959653	0.5144764086646584	-0.0119	1.038379403110201	0.845602960525461	0.0008	1.0070347764127692	0.8958265371238616	0.0655	1.022716527389381	0.8555877190523062	0.1076	1.0138953737294343	0.8051705086895234	-0.01275	1.0492192099913253	0.7198330207930373	0.0702	1.0620952273427984	0.648769201175672	0.1076	1.0935646920760569	0.8563913786422727	-0.01275	1.1748051985724128	0.7856296104659968	0.0702	1.2179589021604353	0.7087629275136	0.1076
1090	36.35011547344111	1.1345356167007783	0.6839260043569056	0.0301	1.1087601142397547	0.6665933639794178	0.0301	1.1801787433091877	0.560953834312864	0.129	1.2453058254107867	0.47780565729453467	0.023	1.2440324590142309	0.42238584269363777	0.2179	1.2364601850694112	0.4278221237227451	0.1804	1.2647018499953495	0.47000221726582325	-0.0119	1.1623331292896923	0.697150037834211	0.0301	1.234074592323562	0.5963551126338855	0.129	1.310050900221115	0.5200083129310407	0.023	1.327168744877779	0.4661641459714693	0.2179	1.3427376602072636	0.47866562579503136	0.1804	1.3238710197018317	0.5118726437065654	-0.0119	1.0378575192924435	0.8455682585837263	0.0008	1.0043952346765066	0.9001011613445208	0.0655	1.02150683191284	0.8581123662299287	0.1076	1.0112056414272717	0.803713304849936	-0.01275	1.0453840825128635	0.7192337292262602	0.0702	1.0615625707270484	0.6491726068530491	0.1076	1.0941411448338505	0.8554034932273294	-0.01275	1.174767991382493	0.785009148396913	0.0702	1.2186081858327154	0.7085072870860024	0.1076
1091	36.38346420323326	1.1340417061024564	0.6853002231306846	0.0301	1.1083231535400977	0.6671214574082891	0.0301	1.180197975158952	0.5612901861843455	0.129	1.244568461124138	0.47883756860470517	0.023	1.244879256988292	0.42358630808559555	0.2179	1.2368270119423566	0.4283672292180276	0.1804	1.2629691728008325	0.470289694093383	-0.0119	1.1623554749379423	0.6979349912989687	0.0301	1.2347133271436956	0.5965609398841494	0.129	1.3063656919954294	0.5163774726147787	0.023	1.3254390578595026	0.4650529948505735	0.2179	1.3404658241513157	0.47755722486536595	0.1804	1.3189508211214236	0.5066724586970054	-0.0119	1.038099299196092	0.8451780584201303	0.0008	1.0032897004518664	0.9022480450941203	0.0655	1.0235741092166675	0.8556158419567595	0.1076	1.0088233900581143	0.8027686766497388	-0.01275	1.04270367603601	0.7182958536791841	0.0702	1.0612342734703495	0.647888438756968	0.1076	1.0947326987839825	0.8548247562340907	-0.01275	1.1750935690497388	0.7843678153105861	0.0702	1.219368935540566	0.7074758047888411	0.1076
1092	36.416812933025405	1.1348429438006216	0.6854939235809738	0.0301	1.1092890284506063	0.6661521039444227	0.0301	1.1806867269154626	0.5611315756338807	0.129	1.244056477490164	0.48031351887111057	0.023	1.2459102380533107	0.4249677826145802	0.2179	1.236949753323036	0.4290449220855243	0.1804	1.2619952203406701	0.4711486253397928	-0.0119	1.1635255886538929	0.6977882519336748	0.0301	1.2358995182274897	0.5959664816805096	0.129	1.3030244652969722	0.5123267835014763	0.023	1.3225377120757553	0.46330878705063444	0.2179	1.3371276605346256	0.47586363860404907	0.1804	1.3144848385142982	0.5011822759480885	-0.0119	1.03849057774944	0.8446528429543307	0.0008	1.003564736063042	0.902397758753628	0.0655	1.0263494500909136	0.8521475535420625	0.1076	1.0072899616353825	0.8019553710285696	-0.01275	1.0409605217008098	0.7170435988163429	0.0702	1.0607349134063755	0.646081930979569	0.1076	1.09556233254208	0.8547911288192305	-0.01275	1.1752050576431736	0.783890748296515	0.0702	1.219400681715588	0.7071655876913584	0.1076
